<svg width="61" height="20" viewBox="0 0 61 20" fill="none" xmlns="http://www.w3.org/2000/svg">
<g id="Group">
<path id="Vector" d="M0 0.567383H3.95715V13.8521H0V0.567383ZM0 15.8307H17.8072V19.7878H0V15.8307ZM11.3061 0.567383H15.2633V13.8521H11.3061V0.567383Z" fill="white"/>
<path id="Vector_2" d="M30.2432 16.1553V19.9708C27.4166 19.6554 25.1579 18.5807 23.5412 16.7463C21.9233 14.9119 21.0781 12.6552 21.0781 9.97254C21.0781 7.23194 21.9515 4.96421 23.5901 3.16965C25.2261 1.37509 27.4166 0.329269 30.2432 0.0341797V3.87967C28.8299 4.11569 27.5356 4.73668 26.5882 5.74292C25.5432 6.86703 24.9836 8.27663 24.9836 9.97226C24.9836 11.7078 25.5223 13.1185 26.489 14.203C27.3762 15.1889 28.5472 15.8401 30.2432 16.1553ZM38.3779 2.99158L35.5381 5.62506C35.124 5.20984 34.7034 4.86557 34.1907 4.58885C33.579 4.25419 32.7873 4.01704 32.222 3.87996V0.0341797C33.3526 0.132826 34.4762 0.448266 35.5814 0.98022C36.6848 1.51246 37.5893 2.18404 38.3779 2.99158ZM38.3779 16.9968C37.6086 17.7899 36.7439 18.464 35.6989 19.0189C34.4567 19.6735 33.3524 19.9997 32.2217 19.9997V16.1638C33.635 15.9063 34.6348 15.3223 35.5811 14.4102L38.3779 16.9968Z" fill="white"/>
<path id="Vector_3" d="M47.6084 15.8311H60.7687V19.7883H41.2656V15.8311H43.2889L48.1417 6.40972L50.2715 10.6467L47.6084 15.8311ZM51.4248 0L58.4674 13.8525H54.1467L49.2362 4.2723L51.4248 0Z" fill="white"/>
</g>
</svg>
