<svg width="295" height="124" viewBox="0 0 295 124" fill="none" xmlns="http://www.w3.org/2000/svg">
<g clip-path="url(#clip0_402_1639)">
<path d="M0.417969 4.02539H19.5347V68.4743H0.417969V4.02539ZM0.417969 78.073H86.4434V97.2706H0.417969V78.073ZM55.0373 4.02539H74.1541V68.4743H55.0373V4.02539Z" fill="#7C7C7C"/>
<path d="M146.526 79.6488V98.1594C132.871 96.6291 121.959 91.4156 114.149 82.5161C106.333 73.6167 102.25 62.6686 102.25 49.6541C102.25 36.3584 106.469 25.3568 114.385 16.6508C122.288 7.94467 132.871 2.87104 146.526 1.43945V20.0953C139.698 21.2403 133.446 24.253 128.869 29.1346C123.821 34.5881 121.117 41.4265 121.117 49.6527C121.117 58.0722 123.72 64.9161 128.389 70.1776C132.676 74.9605 138.333 78.1199 146.526 79.6488ZM185.824 15.7869L172.105 28.5628C170.105 26.5485 168.073 24.8783 165.596 23.5358C162.641 21.9122 158.817 20.7618 156.086 20.0967V1.43945C161.547 1.91802 166.975 3.44834 172.314 6.02904C177.645 8.6111 182.015 11.8692 185.824 15.7869ZM185.824 83.7311C182.108 87.5788 177.931 90.8492 172.882 93.541C166.881 96.7168 161.546 98.2992 156.084 98.2992V79.69C162.912 78.4408 167.741 75.6078 172.313 71.1827L185.824 83.7311Z" fill="#7C7C7C"/>
<path d="M230.419 78.074H293.996V97.2715H199.777V78.074H209.551L232.995 32.3674L243.284 52.9225L230.419 78.074ZM248.856 1.27148L282.878 68.4752H262.005L238.283 21.998L248.856 1.27148Z" fill="#7C7C7C"/>
<path d="M1.10156 113.158H3.03372V119.958H1.10156V113.158ZM1.10156 121.01H10.0291V122.95H1.10156V121.01ZM6.7929 113.158H8.72506V119.958H6.7929V113.158Z" fill="#7C7C7C"/>
<path d="M14.5064 113.158V122.952H12.5742V113.158H14.5064ZM15.5551 113.158H19.5846V115.099H15.5551V113.158ZM15.5551 117.084H19.5846V119.024H15.5551V117.084ZM15.5551 121.01H19.5846V122.95H15.5551V121.01Z" fill="#7C7C7C"/>
<path d="M24.3931 113.158V122.952H22.4609V113.158H24.3931ZM25.1878 119.024V117.084H27.7495V119.024H25.1878ZM30.49 113.158V122.952H28.5565V113.158H30.49Z" fill="#7C7C7C"/>
<path d="M32.8711 113.158H38.968V115.099H32.8711V113.158ZM34.9535 116.152H36.8856V122.952H34.9535V116.152Z" fill="#7C7C7C"/>
<path d="M43.1509 113.158V122.952H41.2188V113.158H43.1509ZM44.1996 113.158H45.3384C46.1277 113.158 46.8036 113.446 47.3689 114.023C47.9328 114.599 48.2155 115.284 48.2155 116.076C48.2155 116.869 47.9328 117.559 47.3689 118.144C46.8049 118.731 46.1277 119.024 45.3384 119.024H44.1996V117.084H45.3384C45.5678 117.084 45.7822 116.979 45.9829 116.766C46.1823 116.555 46.2833 116.327 46.2833 116.084C46.2833 115.853 46.1823 115.629 45.9829 115.418C45.7822 115.205 45.5692 115.1 45.3384 115.1H44.1996V113.158Z" fill="#7C7C7C"/>
<path d="M61.2871 121.191V123.131C59.8683 122.971 58.75 122.425 57.9321 121.493C57.1128 120.56 56.7031 119.412 56.7031 118.048C56.7031 116.655 57.1169 115.5 57.9471 114.588C58.7759 113.676 59.8888 113.144 61.2871 112.994V114.949C60.5579 115.07 59.9543 115.385 59.4751 115.897C58.9452 116.468 58.6817 117.185 58.6817 118.048C58.6817 118.931 58.9261 119.648 59.4163 120.198C59.8642 120.7 60.4869 121.03 61.2871 121.191ZM65.4804 114.496L64.0426 115.835C63.8337 115.625 63.5988 115.449 63.338 115.308C63.0294 115.138 62.6894 115.018 62.3194 114.948V112.992C62.9079 113.043 63.4828 113.203 64.0426 113.474C64.6024 113.745 65.0817 114.085 65.4804 114.496ZM65.4804 121.619C65.0913 122.022 64.6311 122.365 64.1027 122.647C63.4732 122.98 62.8792 123.146 62.3194 123.146V121.195C62.9884 121.065 63.5633 120.767 64.0426 120.302L65.4804 121.619Z" fill="#7C7C7C"/>
<path d="M69.2872 117.535H67.31C67.4492 116.203 67.9886 115.104 68.9281 114.24C69.8675 113.378 71.02 112.947 72.3882 112.947C73.7373 112.947 74.9143 113.389 75.9234 114.271C76.9325 115.154 77.4364 116.241 77.4364 117.535H75.4592C75.3581 116.794 75.029 116.167 74.4706 115.655C73.9107 115.144 73.2225 114.888 72.4032 114.888C71.5839 114.888 70.893 115.144 70.329 115.655C69.7637 116.167 69.4169 116.794 69.2872 117.535ZM69.2872 118.528C69.3869 119.274 69.7187 119.908 70.2826 120.426C70.8466 120.946 71.5484 121.205 72.3868 121.205C73.2157 121.205 73.9203 120.94 74.4992 120.411C75.0782 119.882 75.3977 119.254 75.4578 118.528H77.435C77.435 119.827 76.9284 120.92 75.9152 121.811C74.9007 122.701 73.725 123.147 72.3868 123.147C71.0487 123.147 69.903 122.712 68.9485 121.841C67.9941 120.97 67.4479 119.867 67.3086 118.528H69.2872Z" fill="#7C7C7C"/>
<path d="M81.9907 113.158V122.952H80.0586V113.158H81.9907ZM83.0381 113.158H84.1905C84.9702 113.158 85.6434 113.449 86.2128 114.03C86.7822 114.612 87.0663 115.293 87.0663 116.076C87.0663 116.869 86.7836 117.559 86.2197 118.144C85.6557 118.731 84.9784 119.024 84.1892 119.024H83.0367V117.084H84.1987C84.4404 117.084 84.6562 116.979 84.8473 116.766C85.0385 116.555 85.1341 116.327 85.1341 116.084C85.1341 115.842 85.0358 115.617 84.8391 115.41C84.6425 115.203 84.4295 115.099 84.1987 115.099H83.0367L83.0381 113.158ZM85.1355 119.881C85.4673 119.881 85.8182 119.761 86.1841 119.521C86.5515 119.279 86.8259 119.019 87.0075 118.738C87.1373 119.059 87.2014 119.41 87.2014 119.791C87.2014 120.623 86.912 121.358 86.333 121.995C85.754 122.632 85.0399 122.95 84.1905 122.95H83.0381V121.01H84.1236C84.4309 121.01 84.6767 120.903 84.8596 120.686C85.0426 120.47 85.1355 120.202 85.1355 119.881Z" fill="#7C7C7C"/>
<path d="M91.772 113.158V122.952H89.8398V113.158H91.772ZM92.8207 113.158H93.9595C94.7488 113.158 95.4247 113.446 95.99 114.023C96.5539 114.599 96.8366 115.284 96.8366 116.076C96.8366 116.869 96.5539 117.559 95.99 118.144C95.426 118.731 94.7488 119.024 93.9595 119.024H92.8207V117.084H93.9595C94.1889 117.084 94.4033 116.979 94.604 116.766C94.8034 116.555 94.9044 116.327 94.9044 116.084C94.9044 115.853 94.8034 115.629 94.604 115.418C94.4033 115.205 94.1903 115.1 93.9595 115.1H92.8207V113.158Z" fill="#7C7C7C"/>
<path d="M101.37 113.158V122.952H99.4375V113.158H101.37ZM102.418 113.158H106.448V115.099H102.418V113.158ZM102.418 117.084H106.448V119.024H102.418V117.084ZM102.418 121.01H106.448V122.95H102.418V121.01Z" fill="#7C7C7C"/>
<path d="M114.061 119.778L109.328 115.549V112.945L114.061 117.176L118.78 112.949V122.953H116.848V117.265L114.061 119.778ZM111.26 118.665V122.951H109.328V116.934L111.26 118.665Z" fill="#7C7C7C"/>
<path d="M124.264 113.158V122.952H122.332V113.158H124.264ZM125.312 113.158H129.341V115.099H125.312V113.158ZM125.312 117.084H129.341V119.024H125.312V117.084ZM125.312 121.01H129.341V122.95H125.312V121.01Z" fill="#7C7C7C"/>
<path d="M134.147 113.158V122.952H132.215V113.158H134.147ZM134.942 119.024V117.084H137.503V119.024H134.942ZM140.244 113.158V122.952H138.31V113.158H140.244Z" fill="#7C7C7C"/>
<path d="M145.217 113.158V122.952H143.285V113.158H145.217ZM146.011 119.024V117.084H148.572V119.024H146.011ZM151.314 113.158V122.952H149.381V113.158H151.314Z" fill="#7C7C7C"/>
<path d="M155.67 117.535H153.693C153.832 116.203 154.371 115.104 155.311 114.24C156.25 113.378 157.403 112.947 158.771 112.947C160.12 112.947 161.297 113.389 162.306 114.271C163.315 115.154 163.819 116.241 163.819 117.535H161.842C161.741 116.794 161.412 116.167 160.853 115.655C160.294 115.144 159.605 114.888 158.786 114.888C157.967 114.888 157.276 115.144 156.712 115.655C156.147 116.167 155.8 116.794 155.67 117.535ZM155.67 118.528C155.77 119.274 156.101 119.908 156.665 120.426C157.229 120.946 157.931 121.205 158.77 121.205C159.598 121.205 160.303 120.94 160.882 120.411C161.461 119.882 161.781 119.254 161.841 118.528H163.818C163.818 119.827 163.311 120.92 162.298 121.811C161.283 122.701 160.108 123.147 158.77 123.147C157.431 123.147 156.286 122.712 155.331 121.841C154.378 120.972 153.831 119.867 153.691 118.528H155.67Z" fill="#7C7C7C"/>
<path d="M173.751 112.943V122.951H171.819V117.685L166.441 123.172V120.374L173.751 112.943ZM168.374 116.934L166.441 118.904V113.157H168.374V116.934ZM172.044 113.159L169.407 115.882V113.159H172.044Z" fill="#7C7C7C"/>
<path d="M185.828 121.01H192.538V122.951H182.547V121.01H183.641L186.097 116.226L187.176 118.376L185.828 121.01ZM187.76 112.943L191.326 119.957H189.138L186.652 115.1L187.76 112.943Z" fill="#7C7C7C"/>
<path d="M197.034 113.158V122.952H195.102V113.158H197.034ZM198.082 113.158H199.221C200.01 113.158 200.686 113.446 201.252 114.023C201.816 114.599 202.098 115.284 202.098 116.076C202.098 116.869 201.816 117.559 201.252 118.144C200.688 118.731 200.01 119.024 199.221 119.024H198.082V117.084H199.221C199.451 117.084 199.665 116.979 199.866 116.766C200.065 116.555 200.166 116.327 200.166 116.084C200.166 115.853 200.065 115.629 199.866 115.418C199.665 115.205 199.452 115.1 199.221 115.1H198.082V113.158Z" fill="#7C7C7C"/>
<path d="M205.792 122.951H203.621L207.051 116.212L208.145 118.363L205.792 122.951ZM210.765 121.298H207.784L208.773 119.357H209.807L207.604 115.098L208.713 112.945L213.806 122.953H211.634L210.765 121.298Z" fill="#7C7C7C"/>
<path d="M220.905 119.778L216.172 115.549V112.945L220.905 117.176L225.624 112.949V122.953H223.692V117.265L220.905 119.778ZM218.104 118.665V122.951H216.172V116.934L218.104 118.665Z" fill="#7C7C7C"/>
<path d="M230.269 122.951H228.098L231.528 116.212L232.621 118.363L230.269 122.951ZM235.242 121.298H232.261L233.25 119.357H234.283L232.081 115.098L233.19 112.945L238.283 122.953H236.11L235.242 121.298Z" fill="#7C7C7C"/>
<path d="M239.992 113.158H246.089V115.099H239.992V113.158ZM242.075 116.152H244.007V122.952H242.075V116.152Z" fill="#7C7C7C"/>
<path d="M249.621 113.145L251.599 116.95L250.55 119.011L247.344 113.145H249.621ZM254.7 113.145H256.872L251.914 122.952H249.727L254.7 113.145Z" fill="#7C7C7C"/>
<path d="M261.35 113.158V122.952H259.418V113.158H261.35ZM262.399 113.158H263.538C264.327 113.158 265.003 113.446 265.568 114.023C266.132 114.599 266.415 115.284 266.415 116.076C266.415 116.869 266.132 117.559 265.568 118.144C265.004 118.731 264.327 119.024 263.538 119.024H262.399V117.084H263.538C263.767 117.084 263.981 116.979 264.182 116.766C264.381 116.555 264.483 116.327 264.483 116.084C264.483 115.853 264.381 115.629 264.182 115.418C263.981 115.205 263.768 115.1 263.538 115.1H262.399V113.158Z" fill="#7C7C7C"/>
<path d="M270.745 113.158V122.952H268.812V113.158H270.745ZM271.778 113.158H274.46V115.099H271.778V113.158Z" fill="#7C7C7C"/>
<path d="M276.934 123.173V113.159H278.866V118.425L284.243 112.945V115.729L276.934 123.173ZM282.311 119.175L284.243 117.22V122.951H282.311V119.175Z" fill="#7C7C7C"/>
<path d="M287.367 123.173V113.159H289.299V118.425L294.677 112.945V115.729L287.367 123.173ZM292.744 119.175L294.677 117.22V122.951H292.744V119.175Z" fill="#7C7C7C"/>
</g>
<defs>
<clipPath id="clip0_402_1639">
<rect width="295" height="123.44" fill="white"/>
</clipPath>
</defs>
</svg>
