<svg width="60" height="20" viewBox="0 0 60 20" fill="none" xmlns="http://www.w3.org/2000/svg">
<path d="M0 0.486328H3.91732V13.6373H0V0.486328ZM0 15.596H17.628V19.5133H0V15.596ZM11.1923 0.486328H15.1097V13.6373H11.1923V0.486328Z" fill="black"/>
<path d="M29.6705 16.076V19.8532C26.8724 19.5409 24.6364 18.4771 23.0359 16.6611C21.4343 14.8452 20.5977 12.6112 20.5977 9.95552C20.5977 7.2425 21.4623 4.9976 23.0843 3.2211C24.7038 1.4446 26.8724 0.409307 29.6705 0.117188V3.92398C28.2714 4.15762 26.9902 4.77236 26.0522 5.76847C25.0178 6.88127 24.4638 8.27667 24.4638 9.95524C24.4638 11.6733 24.9971 13.0698 25.954 14.1434C26.8324 15.1194 27.9916 15.7641 29.6705 16.076ZM37.7234 3.04482L34.9121 5.65179C34.5022 5.24075 34.0858 4.89995 33.5783 4.62602C32.9728 4.29472 32.189 4.05996 31.6294 3.92426V0.117188C32.7486 0.214841 33.8609 0.527107 34.9549 1.05371C36.0473 1.58058 36.9427 2.24541 37.7234 3.04482ZM37.7234 16.909C36.9617 17.6942 36.1058 18.3615 35.0713 18.9108C33.8416 19.5588 32.7484 19.8817 31.6291 19.8817V16.0844C33.0282 15.8295 34.0178 15.2515 34.9546 14.3485L37.7234 16.909Z" fill="black"/>
<path d="M46.9703 15.8769H59.9982V19.7942H40.6914V15.8769H42.6943L47.4983 6.55029L49.6067 10.7446L46.9703 15.8769ZM50.7483 0.205078L57.72 13.9182H53.4429L48.5817 4.43438L50.7483 0.205078Z" fill="black"/>
</svg>
