<svg width="20" height="20" viewBox="0 0 20 20" fill="none" xmlns="http://www.w3.org/2000/svg">
<g id="entypo-social:vk-with-circle" clip-path="url(#clip0_402_1477)">
<path id="Vector" d="M9.99844 0.400391C4.69644 0.400391 0.398438 4.69839 0.398438 10.0004C0.398438 15.3024 4.69644 19.6004 9.99844 19.6004C15.3004 19.6004 19.5984 15.3024 19.5984 10.0004C19.5984 4.69839 15.3004 0.400391 9.99844 0.400391ZM13.6904 11.2314C13.6904 11.2314 14.5394 12.0694 14.7484 12.4584C14.7544 12.4671 14.7581 12.4737 14.7594 12.4784C14.8441 12.6204 14.8651 12.7327 14.8224 12.8154C14.7524 12.9534 14.5124 13.0214 14.4304 13.0274H12.9304C12.8264 13.0274 12.6084 13.0004 12.3444 12.8184C12.1414 12.6764 11.9414 12.4434 11.7464 12.2164C11.4554 11.8784 11.2034 11.5864 10.9494 11.5864C10.9172 11.5863 10.8851 11.5913 10.8544 11.6014C10.6624 11.6634 10.4164 11.9374 10.4164 12.6674C10.4164 12.8954 10.2364 13.0264 10.1094 13.0264H9.42244C9.18844 13.0264 7.96944 12.9444 6.88944 11.8054C5.56744 10.4104 4.37744 7.61239 4.36744 7.58639C4.29244 7.40539 4.44744 7.30839 4.61644 7.30839H6.13144C6.33344 7.30839 6.39944 7.43139 6.44544 7.54039C6.49944 7.66739 6.69744 8.17239 7.02244 8.74039C7.54944 9.66639 7.87244 10.0424 8.13144 10.0424C8.18 10.0418 8.2277 10.0295 8.27044 10.0064C8.60844 9.81839 8.54544 8.61339 8.53044 8.36339C8.53044 8.31639 8.52944 7.82439 8.35644 7.58839C8.23244 7.41739 8.02144 7.35239 7.89344 7.32839C7.94525 7.2569 8.0135 7.19894 8.09244 7.15939C8.32444 7.04339 8.74244 7.02639 9.15744 7.02639H9.38844C9.83844 7.03239 9.95444 7.06139 10.1174 7.10239C10.4474 7.18139 10.4544 7.39439 10.4254 8.12339C10.4164 8.33039 10.4074 8.56439 10.4074 8.84039L10.4044 9.03239C10.3944 9.40339 10.3824 9.82439 10.6444 9.99739C10.6782 10.0197 10.718 10.0312 10.7584 10.0304C10.8494 10.0304 11.1234 10.0304 11.8654 8.75739C12.0934 8.34721 12.2922 7.92149 12.4604 7.48339C12.4754 7.45739 12.5194 7.37739 12.5714 7.34639C12.6102 7.32796 12.6525 7.31807 12.6954 7.31739H14.4764C14.6704 7.31739 14.8034 7.34639 14.8284 7.42139C14.8724 7.54039 14.8204 7.90339 14.0074 9.00439L13.6444 9.48339C12.9074 10.4494 12.9074 10.4984 13.6904 11.2314Z" fill="white"/>
</g>
<defs>
<clipPath id="clip0_402_1477">
<rect width="20" height="20" fill="white"/>
</clipPath>
</defs>
</svg>
