<?xml version="1.0" encoding="utf-8"?><svg xmlns="http://www.w3.org/2000/svg" xmlns:xlink="http://www.w3.org/1999/xlink"><symbol fill="currentColor" viewBox="0 0 30 30" id="ellipseMock"><circle cx="15" cy="15" r="15"/></symbol><symbol fill="currentColor" viewBox="0 0 61 20" id="logo--white"><g><path d="M0 .567h3.957v13.285H0V.567Zm0 15.264h17.807v3.957H0V15.83ZM11.306.567h3.957v13.285h-3.957V.567ZM30.243 16.155v3.816c-2.826-.316-5.085-1.39-6.702-3.225-1.618-1.834-2.463-4.09-2.463-6.773 0-2.741.873-5.009 2.512-6.803C25.226 1.375 27.417.33 30.243.034V3.88c-1.413.236-2.707.857-3.655 1.863-1.045 1.124-1.604 2.534-1.604 4.23 0 1.735.538 3.145 1.505 4.23.887.986 2.058 1.637 3.754 1.952Zm8.135-13.163-2.84 2.633c-.414-.415-.835-.76-1.347-1.036-.612-.335-1.404-.572-1.969-.709V.034a9.652 9.652 0 0 1 3.36.946 9.783 9.783 0 0 1 2.796 2.012Zm0 14.005a10.606 10.606 0 0 1-2.68 2.022c-1.241.655-2.346.98-3.476.98v-3.835c1.413-.258 2.413-.842 3.36-1.754l2.796 2.587ZM47.608 15.831h13.16v3.957H41.267v-3.957h2.023l4.853-9.421 2.13 4.237-2.664 5.184ZM51.425 0l7.042 13.852h-4.32l-4.91-9.58L51.424 0Z"/></g></symbol><symbol fill="currentColor" viewBox="0 0 295 124" id="logo_full"><g clip-path="url(#ca)"><path d="M.418 4.025h19.117v64.45H.418V4.024Zm0 74.048h86.025v19.198H.418V78.073Zm54.62-74.048h19.116v64.45H55.037V4.024ZM146.526 79.649v18.51c-13.655-1.53-24.567-6.743-32.377-15.643-7.816-8.9-11.899-19.847-11.899-32.862 0-13.296 4.219-24.297 12.135-33.003 7.903-8.706 18.486-13.78 32.141-15.212v18.656c-6.828 1.145-13.08 4.158-17.657 9.04-5.048 5.453-7.752 12.291-7.752 20.518 0 8.42 2.603 15.263 7.272 20.525 4.287 4.782 9.944 7.942 18.137 9.47Zm39.298-63.862-13.719 12.776c-2-2.014-4.032-3.685-6.509-5.027-2.955-1.624-6.779-2.774-9.51-3.44V1.44c5.461.479 10.889 2.01 16.228 4.59 5.331 2.582 9.701 5.84 13.51 9.758Zm0 67.944c-3.716 3.848-7.893 7.118-12.942 9.81-6.001 3.176-11.336 4.758-16.798 4.758V79.69c6.828-1.25 11.657-4.082 16.229-8.507l13.511 12.548ZM230.419 78.074h63.577v19.198h-94.219V78.073h9.774l23.444-45.707 10.289 20.556-12.865 25.151Zm18.437-76.803 34.022 67.204h-20.873l-23.722-46.477 10.573-20.727ZM1.102 113.158h1.932v6.8H1.102v-6.8Zm0 7.852h8.927v1.94H1.102v-1.94Zm5.69-7.852h1.933v6.8H6.793v-6.8ZM14.506 113.158v9.794h-1.932v-9.794h1.932Zm1.05 0h4.029v1.941h-4.03v-1.941Zm0 3.926h4.029v1.94h-4.03v-1.94Zm0 3.926h4.029v1.94h-4.03v-1.94ZM24.393 113.158v9.794h-1.932v-9.794h1.932Zm.795 5.866v-1.94h2.562v1.94h-2.562Zm5.302-5.866v9.794h-1.933v-9.794h1.933ZM32.871 113.158h6.097v1.941h-6.097v-1.941Zm2.082 2.994h1.933v6.8h-1.933v-6.8ZM43.15 113.158v9.794H41.22v-9.794h1.932Zm1.05 0h1.138c.79 0 1.466.288 2.03.865.565.576.847 1.261.847 2.053 0 .793-.282 1.483-.846 2.068-.564.587-1.241.88-2.03.88h-1.14v-1.94h1.14c.229 0 .443-.105.644-.318.2-.211.3-.439.3-.682 0-.231-.1-.455-.3-.666-.2-.213-.414-.318-.645-.318H44.2v-1.942ZM61.287 121.191v1.94c-1.419-.16-2.537-.706-3.355-1.638-.82-.933-1.229-2.081-1.229-3.445 0-1.393.414-2.548 1.244-3.46.829-.912 1.942-1.444 3.34-1.594v1.955c-.73.121-1.333.436-1.812.948-.53.571-.793 1.288-.793 2.151 0 .883.244 1.6.734 2.15.448.502 1.07.832 1.871.993Zm4.193-6.695-1.437 1.339a3.005 3.005 0 0 0-.705-.527 3.411 3.411 0 0 0-1.019-.36v-1.956a4.9 4.9 0 0 1 1.724.482c.56.271 1.039.611 1.437 1.022Zm0 7.123c-.389.403-.849.746-1.377 1.028-.63.333-1.224.499-1.784.499v-1.951a3.336 3.336 0 0 0 1.724-.893l1.437 1.317ZM69.287 117.535H67.31c.14-1.332.679-2.431 1.618-3.295.94-.862 2.092-1.293 3.46-1.293 1.35 0 2.526.442 3.535 1.324 1.01.883 1.513 1.97 1.513 3.264H75.46a3.037 3.037 0 0 0-.988-1.88c-.56-.511-1.249-.767-2.068-.767-.82 0-1.51.256-2.074.767a3.222 3.222 0 0 0-1.042 1.88Zm0 .993c.1.746.432 1.38.996 1.898.564.52 1.265.779 2.104.779.829 0 1.533-.265 2.112-.794.58-.529.899-1.157.959-1.883h1.977c0 1.299-.507 2.392-1.52 3.283-1.014.89-2.19 1.336-3.528 1.336s-2.484-.435-3.439-1.306c-.954-.871-1.5-1.974-1.64-3.313h1.98ZM81.99 113.158v9.794H80.06v-9.794h1.932Zm1.048 0h1.153c.78 0 1.452.291 2.022.872.57.582.853 1.263.853 2.046 0 .793-.282 1.483-.846 2.068-.564.587-1.242.88-2.03.88h-1.153v-1.94h1.162c.241 0 .457-.105.648-.318.192-.211.287-.439.287-.682 0-.242-.098-.467-.295-.674-.197-.207-.41-.311-.64-.311h-1.162l.001-1.941Zm2.097 6.723c.332 0 .683-.12 1.05-.36.367-.242.64-.502.822-.783.13.321.194.672.194 1.053 0 .832-.289 1.567-.868 2.204-.579.637-1.293.955-2.142.955h-1.153v-1.94h1.086c.307 0 .553-.107.736-.324.183-.216.275-.484.275-.805ZM91.772 113.158v9.794H89.84v-9.794h1.932Zm1.049 0h1.139c.789 0 1.465.288 2.03.865.564.576.847 1.261.847 2.053 0 .793-.283 1.483-.847 2.068-.564.587-1.241.88-2.03.88h-1.14v-1.94h1.14c.229 0 .443-.105.644-.318.2-.211.3-.439.3-.682 0-.231-.1-.455-.3-.666-.2-.213-.414-.318-.644-.318h-1.14v-1.942ZM101.37 113.158v9.794h-1.933v-9.794h1.933Zm1.048 0h4.03v1.941h-4.03v-1.941Zm0 3.926h4.03v1.94h-4.03v-1.94Zm0 3.926h4.03v1.94h-4.03v-1.94ZM114.061 119.778l-4.733-4.229v-2.604l4.733 4.231 4.719-4.227v10.004h-1.932v-5.688l-2.787 2.513Zm-2.801-1.113v4.286h-1.932v-6.017l1.932 1.731ZM124.264 113.158v9.794h-1.932v-9.794h1.932Zm1.048 0h4.029v1.941h-4.029v-1.941Zm0 3.926h4.029v1.94h-4.029v-1.94Zm0 3.926h4.029v1.94h-4.029v-1.94ZM134.147 113.158v9.794h-1.932v-9.794h1.932Zm.795 5.866v-1.94h2.561v1.94h-2.561Zm5.302-5.866v9.794h-1.934v-9.794h1.934ZM145.217 113.158v9.794h-1.932v-9.794h1.932Zm.794 5.866v-1.94h2.561v1.94h-2.561Zm5.303-5.866v9.794h-1.933v-9.794h1.933ZM155.67 117.535h-1.977c.139-1.332.678-2.431 1.618-3.295.939-.862 2.092-1.293 3.46-1.293 1.349 0 2.526.442 3.535 1.324 1.009.883 1.513 1.97 1.513 3.264h-1.977a3.034 3.034 0 0 0-.989-1.88c-.559-.511-1.248-.767-2.067-.767-.819 0-1.51.256-2.074.767a3.226 3.226 0 0 0-1.042 1.88Zm0 .993c.1.746.431 1.38.995 1.898.564.52 1.266.779 2.105.779.828 0 1.533-.265 2.112-.794.579-.529.899-1.157.959-1.883h1.977c0 1.299-.507 2.392-1.52 3.283-1.015.89-2.19 1.336-3.528 1.336-1.339 0-2.484-.435-3.439-1.306-.953-.869-1.5-1.974-1.64-3.313h1.979ZM173.751 112.943v10.008h-1.932v-5.266l-5.378 5.487v-2.798l7.31-7.431Zm-5.377 3.991-1.933 1.97v-5.747h1.933v3.777Zm3.67-3.775-2.637 2.723v-2.723h2.637ZM185.828 121.01h6.71v1.941h-9.991v-1.941h1.094l2.456-4.784 1.079 2.15-1.348 2.634Zm1.932-8.067 3.566 7.014h-2.188l-2.486-4.857 1.108-2.157ZM197.034 113.158v9.794h-1.932v-9.794h1.932Zm1.048 0h1.139c.789 0 1.465.288 2.031.865.564.576.846 1.261.846 2.053 0 .793-.282 1.483-.846 2.068-.564.587-1.242.88-2.031.88h-1.139v-1.94h1.139c.23 0 .444-.105.645-.318.199-.211.3-.439.3-.682 0-.231-.101-.455-.3-.666-.201-.213-.414-.318-.645-.318h-1.139v-1.942ZM205.792 122.951h-2.171l3.43-6.739 1.094 2.151-2.353 4.588Zm4.973-1.653h-2.981l.989-1.941h1.034l-2.203-4.259 1.109-2.153 5.093 10.008h-2.172l-.869-1.655ZM220.905 119.778l-4.733-4.229v-2.604l4.733 4.231 4.719-4.227v10.004h-1.932v-5.688l-2.787 2.513Zm-2.801-1.113v4.286h-1.932v-6.017l1.932 1.731ZM230.269 122.951h-2.171l3.43-6.739 1.093 2.151-2.352 4.588Zm4.973-1.653h-2.981l.989-1.941h1.033l-2.202-4.259 1.109-2.153 5.093 10.008h-2.173l-.868-1.655ZM239.992 113.158h6.097v1.941h-6.097v-1.941Zm2.083 2.994h1.932v6.8h-1.932v-6.8ZM249.621 113.145l1.978 3.805-1.049 2.061-3.206-5.866h2.277Zm5.079 0h2.172l-4.958 9.807h-2.187l4.973-9.807ZM261.35 113.158v9.794h-1.932v-9.794h1.932Zm1.049 0h1.139c.789 0 1.465.288 2.03.865.564.576.847 1.261.847 2.053 0 .793-.283 1.483-.847 2.068-.564.587-1.241.88-2.03.88h-1.139v-1.94h1.139c.229 0 .443-.105.644-.318.199-.211.301-.439.301-.682 0-.231-.102-.455-.301-.666-.201-.213-.414-.318-.644-.318h-1.139v-1.942ZM270.745 113.158v9.794h-1.933v-9.794h1.933Zm1.033 0h2.682v1.941h-2.682v-1.941ZM276.934 123.173v-10.014h1.932v5.266l5.377-5.48v2.784l-7.309 7.444Zm5.377-3.998 1.932-1.955v5.731h-1.932v-3.776ZM287.367 123.173v-10.014h1.932v5.266l5.378-5.48v2.784l-7.31 7.444Zm5.377-3.998 1.933-1.955v5.731h-1.933v-3.776Z"/></g><defs><clipPath id="ca"><path d="M0 0h295v123.44H0z"/></clipPath></defs></symbol><symbol fill="currentColor" viewBox="0 0 26 16" id="swiper-arrow-btn"><path d="M24.5 8h-23m0 0 5.991-6M1.5 8l5.991 6" stroke="#fff" stroke-width="1.5" stroke-linecap="square"/></symbol><symbol fill="currentColor" viewBox="0 0 50 50" id="swiper-next-btn"><rect width="50" height="50" rx="24.5" fill-opacity=".1"/><path d="M13.5 25h23m0 0-5.991 6m5.991-6-5.991-6" stroke="#fff" stroke-width="1.5" stroke-linecap="square"/></symbol><symbol fill="currentColor" viewBox="0 0 50 50" id="swiper-next-btn--hover"><rect width="50" height="50" rx="24.5" fill-opacity=".2"/><path d="M13.5 25h23m0 0-5.991 6m5.991-6-5.991-6" stroke="#fff" stroke-width="1.5" stroke-linecap="square"/></symbol><symbol fill="currentColor" viewBox="0 0 50 50" id="swiper-prev-btn"><rect width="50" height="50" rx="24.5" fill-opacity=".1"/><path d="M36.5 25h-23m0 0 5.991-6M13.5 25l5.991 6" stroke="#fff" stroke-width="1.5" stroke-linecap="square"/></symbol><symbol fill="currentColor" viewBox="0 0 50 50" id="swiper-prev-btn--hover"><rect width="50" height="50" rx="24.5" fill-opacity=".2"/><path d="M36.5 25h-23m0 0 5.991-6M13.5 25l5.991 6" stroke="#fff" stroke-width="1.5" stroke-linecap="square"/></symbol><symbol fill="currentColor" viewBox="0 0 20 20" id="telegram"><g clip-path="url(#ia)"><path d="M10 0C4.48 0 0 4.48 0 10s4.48 10 10 10 10-4.48 10-10S15.52 0 10 0Zm4.64 6.8c-.15 1.58-.8 5.42-1.13 7.19-.14.75-.42 1-.68 1.03-.58.05-1.02-.38-1.58-.75-.88-.58-1.38-.94-2.23-1.5-.99-.65-.35-1.01.22-1.59.15-.15 2.71-2.48 2.76-2.69a.2.2 0 0 0-.05-.18c-.06-.05-.14-.03-.21-.02-.09.02-1.49.95-4.22 2.79-.4.27-.76.41-1.08.4-.36-.01-1.04-.2-1.55-.37-.63-.2-1.12-.31-1.08-.66.02-.18.27-.36.74-.55 2.92-1.27 4.86-2.11 5.83-2.51 2.78-1.16 3.35-1.36 3.73-1.36.08 0 .27.02.39.12.1.08.13.19.14.27-.01.06.01.24 0 .38Z"/></g><defs><clipPath id="ia"><path d="M0 0h20v20H0z"/></clipPath></defs></symbol><symbol fill="currentColor" viewBox="0 0 20 20" id="vk"><g clip-path="url(#ja)"><path d="M9.998.4a9.6 9.6 0 0 0-9.6 9.6 9.6 9.6 0 0 0 9.6 9.6 9.6 9.6 0 0 0 9.6-9.6 9.6 9.6 0 0 0-9.6-9.6Zm3.692 10.831s.85.838 1.058 1.227c.006.01.01.016.011.02.085.142.106.255.063.337-.07.138-.31.206-.392.212h-1.5c-.104 0-.322-.027-.586-.209-.203-.142-.403-.375-.598-.602-.29-.338-.543-.63-.797-.63a.301.301 0 0 0-.095.015c-.192.062-.438.336-.438 1.066 0 .228-.18.36-.307.36h-.687c-.234 0-1.453-.083-2.533-1.222-1.322-1.395-2.512-4.193-2.522-4.219-.075-.18.08-.278.25-.278H6.13c.202 0 .268.123.314.232.054.127.252.632.577 1.2.527.926.85 1.302 1.11 1.302a.3.3 0 0 0 .138-.036c.338-.188.275-1.393.26-1.643 0-.047 0-.539-.174-.775-.124-.17-.335-.236-.463-.26a.55.55 0 0 1 .2-.169c.231-.116.65-.133 1.064-.133h.231c.45.006.566.035.73.076.33.08.336.292.307 1.021-.009.207-.018.441-.018.717l-.003.192c-.01.371-.022.792.24.965a.2.2 0 0 0 .114.033c.091 0 .365 0 1.107-1.273.228-.41.427-.836.595-1.274.015-.026.06-.106.111-.137a.3.3 0 0 1 .124-.029h1.781c.194 0 .327.03.352.104.044.12-.008.482-.82 1.583l-.364.48c-.737.965-.737 1.014.046 1.747Z"/></g><defs><clipPath id="ja"><path d="M0 0h20v20H0z"/></clipPath></defs></symbol></svg>